<?xml version="1.0" encoding="UTF-8" standalone="no"?>
<!-- Created with Inkscape (http://www.inkscape.org/) -->

<svg
   xmlns:dc="http://purl.org/dc/elements/1.1/"
   xmlns:cc="http://creativecommons.org/ns#"
   xmlns:rdf="http://www.w3.org/1999/02/22-rdf-syntax-ns#"
   xmlns:svg="http://www.w3.org/2000/svg"
   xmlns="http://www.w3.org/2000/svg"
   xmlns:sodipodi="http://sodipodi.sourceforge.net/DTD/sodipodi-0.dtd"
   xmlns:inkscape="http://www.inkscape.org/namespaces/inkscape"
   width="162.56mm"
   height="121.92mm"
   viewBox="0 0 162.56 121.92"
   version="1.1"
   id="svg8"
   inkscape:version="0.92.4 5da689c313, 2019-01-14"
   sodipodi:docname="PRROC-ath.svg">
  <defs
     id="defs2">
    <clipPath
       id="clipPath1074"
       clipPathUnits="userSpaceOnUse">
      <path
         inkscape:connector-curvature="0"
         id="path1072"
         d="M 57.6,38.016 H 414.72 V 304.128 H 57.6 Z" />
    </clipPath>
    <clipPath
       id="clipPath1148"
       clipPathUnits="userSpaceOnUse">
      <path
         inkscape:connector-curvature="0"
         id="path1146"
         d="M 57.6,38.016 H 414.72 V 304.128 H 57.6 Z" />
    </clipPath>
    <clipPath
       id="clipPath1178"
       clipPathUnits="userSpaceOnUse">
      <path
         inkscape:connector-curvature="0"
         id="path1176"
         d="M 57.6,38.016 H 414.72 V 304.128 H 57.6 Z" />
    </clipPath>
    <clipPath
       id="clipPath1214"
       clipPathUnits="userSpaceOnUse">
      <path
         inkscape:connector-curvature="0"
         id="path1212"
         d="M 57.6,38.016 H 414.72 V 304.128 H 57.6 Z" />
    </clipPath>
    <clipPath
       id="clipPath1310"
       clipPathUnits="userSpaceOnUse">
      <path
         inkscape:connector-curvature="0"
         id="path1308"
         d="M 57.6,38.016 H 414.72 V 304.128 H 57.6 Z" />
    </clipPath>
    <clipPath
       id="clipPath1320"
       clipPathUnits="userSpaceOnUse">
      <path
         inkscape:connector-curvature="0"
         id="path1318"
         d="M 57.6,38.016 H 414.72 V 304.128 H 57.6 Z" />
    </clipPath>
    <clipPath
       id="clipPath1330"
       clipPathUnits="userSpaceOnUse">
      <path
         inkscape:connector-curvature="0"
         id="path1328"
         d="M 57.6,38.016 H 414.72 V 304.128 H 57.6 Z" />
    </clipPath>
    <clipPath
       id="clipPath1340"
       clipPathUnits="userSpaceOnUse">
      <path
         inkscape:connector-curvature="0"
         id="path1338"
         d="M 57.6,38.016 H 414.72 V 304.128 H 57.6 Z" />
    </clipPath>
    <filter
       inkscape:collect="always"
       style="color-interpolation-filters:sRGB"
       id="filter1844"
       x="-0.028124996"
       width="1.05625"
       y="-0.050000011"
       height="1.1">
      <feGaussianBlur
         inkscape:collect="always"
         stdDeviation="0.29924658"
         id="feGaussianBlur1846" />
    </filter>
    <filter
       inkscape:collect="always"
       style="color-interpolation-filters:sRGB"
       id="filter1844-5"
       x="-0.028124996"
       width="1.05625"
       y="-0.050000012"
       height="1.1">
      <feGaussianBlur
         inkscape:collect="always"
         stdDeviation="0.29924658"
         id="feGaussianBlur1846-6" />
    </filter>
    <filter
       inkscape:collect="always"
       style="color-interpolation-filters:sRGB"
       id="filter1844-9"
       x="-0.028124996"
       width="1.05625"
       y="-0.050000012"
       height="1.1">
      <feGaussianBlur
         inkscape:collect="always"
         stdDeviation="0.29924658"
         id="feGaussianBlur1846-1" />
    </filter>
  </defs>
  <sodipodi:namedview
     id="base"
     pagecolor="#ffffff"
     bordercolor="#666666"
     borderopacity="1.0"
     inkscape:pageopacity="0.0"
     inkscape:pageshadow="2"
     inkscape:zoom="1.2894737"
     inkscape:cx="343.41724"
     inkscape:cy="249.90471"
     inkscape:document-units="mm"
     inkscape:current-layer="layer2"
     showgrid="false"
     fit-margin-top="0"
     fit-margin-left="0"
     fit-margin-right="0"
     fit-margin-bottom="0"
     inkscape:snap-bbox="true"
     inkscape:bbox-paths="true"
     inkscape:bbox-nodes="true"
     inkscape:snap-bbox-edge-midpoints="true"
     inkscape:snap-bbox-midpoints="true" />
  <metadata
     id="metadata5">
    <rdf:RDF>
      <cc:Work
         rdf:about="">
        <dc:format>image/svg+xml</dc:format>
        <dc:type
           rdf:resource="http://purl.org/dc/dcmitype/StillImage" />
        <dc:title></dc:title>
      </cc:Work>
    </rdf:RDF>
  </metadata>
  <g
     inkscape:label="Capa 1"
     inkscape:groupmode="layer"
     id="layer1"
     transform="translate(-11.010988,-108.80241)"
     style="display:inline">
    <path
       d="M 11.010988,230.72241 H 173.57098 v -121.92 H 11.010988 Z"
       style="fill:#ffffff;fill-opacity:1;fill-rule:nonzero;stroke:none;stroke-width:0.35277778"
       id="path1064"
       inkscape:connector-curvature="0" />
    <path
       d="M 31.330988,217.31121 H 157.31498 v -93.8784 H 31.330988 Z"
       style="fill:#ffffff;fill-opacity:1;fill-rule:nonzero;stroke:none;stroke-width:0.35277778"
       id="path1066"
       inkscape:connector-curvature="0" />
    <g
       id="g1068"
       transform="matrix(0.35277777,0,0,-0.35277777,11.010988,230.72241)">
      <g
         id="g1070"
         clip-path="url(#clipPath1074)">
        <path
           d="m 139.56033,257.472 v -2.65846 z"
           style="fill:#1f77b4;fill-opacity:0.2;fill-rule:nonzero;stroke:#1f77b4;stroke-width:1;stroke-linecap:butt;stroke-linejoin:round;stroke-miterlimit:10;stroke-dasharray:none;stroke-opacity:0.2"
           id="path1076"
           inkscape:connector-curvature="0" />
        <path
           d="m 168.44065,262.912 v -1.95229 z"
           style="fill:#1f77b4;fill-opacity:0.2;fill-rule:nonzero;stroke:#1f77b4;stroke-width:1;stroke-linecap:butt;stroke-linejoin:round;stroke-miterlimit:10;stroke-dasharray:none;stroke-opacity:0.2"
           id="path1078"
           inkscape:connector-curvature="0" />
        <path
           d="M 184.37461,264.93696 V 263.232 Z"
           style="fill:#1f77b4;fill-opacity:0.2;fill-rule:nonzero;stroke:#1f77b4;stroke-width:1;stroke-linecap:butt;stroke-linejoin:round;stroke-miterlimit:10;stroke-dasharray:none;stroke-opacity:0.2"
           id="path1080"
           inkscape:connector-curvature="0" />
        <path
           d="M 191.34572,264.74779 V 261.568 Z"
           style="fill:#1f77b4;fill-opacity:0.2;fill-rule:nonzero;stroke:#1f77b4;stroke-width:1;stroke-linecap:butt;stroke-linejoin:round;stroke-miterlimit:10;stroke-dasharray:none;stroke-opacity:0.2"
           id="path1082"
           inkscape:connector-curvature="0" />
        <path
           d="M 195.32921,262.44466 V 260.928 Z"
           style="fill:#1f77b4;fill-opacity:0.2;fill-rule:nonzero;stroke:#1f77b4;stroke-width:1;stroke-linecap:butt;stroke-linejoin:round;stroke-miterlimit:10;stroke-dasharray:none;stroke-opacity:0.2"
           id="path1084"
           inkscape:connector-curvature="0" />
        <path
           d="m 213.25492,264.47149 v -1.34817 z"
           style="fill:#1f77b4;fill-opacity:0.2;fill-rule:nonzero;stroke:#1f77b4;stroke-width:1;stroke-linecap:butt;stroke-linejoin:round;stroke-miterlimit:10;stroke-dasharray:none;stroke-opacity:0.2"
           id="path1086"
           inkscape:connector-curvature="0" />
        <path
           d="m 218.23429,264.00468 v -1.29632 z"
           style="fill:#1f77b4;fill-opacity:0.2;fill-rule:nonzero;stroke:#1f77b4;stroke-width:1;stroke-linecap:butt;stroke-linejoin:round;stroke-miterlimit:10;stroke-dasharray:none;stroke-opacity:0.2"
           id="path1088"
           inkscape:connector-curvature="0" />
        <path
           d="m 228.19302,264.384 v -1.21746 z"
           style="fill:#1f77b4;fill-opacity:0.2;fill-rule:nonzero;stroke:#1f77b4;stroke-width:1;stroke-linecap:butt;stroke-linejoin:round;stroke-miterlimit:10;stroke-dasharray:none;stroke-opacity:0.2"
           id="path1090"
           inkscape:connector-curvature="0" />
        <path
           d="m 236.16,264.42156 v -1.15843 z"
           style="fill:#1f77b4;fill-opacity:0.2;fill-rule:nonzero;stroke:#1f77b4;stroke-width:1;stroke-linecap:butt;stroke-linejoin:round;stroke-miterlimit:10;stroke-dasharray:none;stroke-opacity:0.2"
           id="path1092"
           inkscape:connector-curvature="0" />
        <path
           d="m 244.12698,264.45563 v -1.10487 z"
           style="fill:#1f77b4;fill-opacity:0.2;fill-rule:nonzero;stroke:#1f77b4;stroke-width:1;stroke-linecap:butt;stroke-linejoin:round;stroke-miterlimit:10;stroke-dasharray:none;stroke-opacity:0.2"
           id="path1094"
           inkscape:connector-curvature="0" />
        <path
           d="M 251.09809,264.34961 V 262.2389 Z"
           style="fill:#1f77b4;fill-opacity:0.2;fill-rule:nonzero;stroke:#1f77b4;stroke-width:1;stroke-linecap:butt;stroke-linejoin:round;stroke-miterlimit:10;stroke-dasharray:none;stroke-opacity:0.2"
           id="path1096"
           inkscape:connector-curvature="0" />
        <path
           d="m 254.08571,262.67278 v -1.02687 z"
           style="fill:#1f77b4;fill-opacity:0.2;fill-rule:nonzero;stroke:#1f77b4;stroke-width:1;stroke-linecap:butt;stroke-linejoin:round;stroke-miterlimit:10;stroke-dasharray:none;stroke-opacity:0.2"
           id="path1098"
           inkscape:connector-curvature="0" />
        <path
           d="M 256.07746,261.93669 V 260.928 Z"
           style="fill:#1f77b4;fill-opacity:0.2;fill-rule:nonzero;stroke:#1f77b4;stroke-width:1;stroke-linecap:butt;stroke-linejoin:round;stroke-miterlimit:10;stroke-dasharray:none;stroke-opacity:0.2"
           id="path1100"
           inkscape:connector-curvature="0" />
        <path
           d="m 263.04857,261.45377 v -1.93385 z"
           style="fill:#1f77b4;fill-opacity:0.2;fill-rule:nonzero;stroke:#1f77b4;stroke-width:1;stroke-linecap:butt;stroke-linejoin:round;stroke-miterlimit:10;stroke-dasharray:none;stroke-opacity:0.2"
           id="path1102"
           inkscape:connector-curvature="0" />
        <path
           d="M 265.04031,259.34011 V 257.472 Z"
           style="fill:#1f77b4;fill-opacity:0.2;fill-rule:nonzero;stroke:#1f77b4;stroke-width:1;stroke-linecap:butt;stroke-linejoin:round;stroke-miterlimit:10;stroke-dasharray:none;stroke-opacity:0.2"
           id="path1104"
           inkscape:connector-curvature="0" />
        <path
           d="m 269.0238,258.07832 v -1.80841 z"
           style="fill:#1f77b4;fill-opacity:0.2;fill-rule:nonzero;stroke:#1f77b4;stroke-width:1;stroke-linecap:butt;stroke-linejoin:round;stroke-miterlimit:10;stroke-dasharray:none;stroke-opacity:0.2"
           id="path1106"
           inkscape:connector-curvature="0" />
        <path
           d="m 274.99904,257.17912 v -0.8737 z"
           style="fill:#1f77b4;fill-opacity:0.2;fill-rule:nonzero;stroke:#1f77b4;stroke-width:1;stroke-linecap:butt;stroke-linejoin:round;stroke-miterlimit:10;stroke-dasharray:none;stroke-opacity:0.2"
           id="path1108"
           inkscape:connector-curvature="0" />
        <path
           d="m 277.98666,256.752 v -0.85743 z"
           style="fill:#1f77b4;fill-opacity:0.2;fill-rule:nonzero;stroke:#1f77b4;stroke-width:1;stroke-linecap:butt;stroke-linejoin:round;stroke-miterlimit:10;stroke-dasharray:none;stroke-opacity:0.2"
           id="path1110"
           inkscape:connector-curvature="0" />
        <path
           d="m 279.9784,256.192 v -0.84459 z"
           style="fill:#1f77b4;fill-opacity:0.2;fill-rule:nonzero;stroke:#1f77b4;stroke-width:1;stroke-linecap:butt;stroke-linejoin:round;stroke-miterlimit:10;stroke-dasharray:none;stroke-opacity:0.2"
           id="path1112"
           inkscape:connector-curvature="0" />
        <path
           d="m 281.97015,255.64566 v -0.83212 l 0.99587,-0.67262 v 0.82269 0 z"
           style="fill:#1f77b4;fill-opacity:0.2;fill-rule:nonzero;stroke:#1f77b4;stroke-width:1;stroke-linecap:butt;stroke-linejoin:round;stroke-miterlimit:10;stroke-dasharray:none;stroke-opacity:0.2"
           id="path1114"
           inkscape:connector-curvature="0" />
        <path
           d="m 285.95364,254.592 v -1.61008 z"
           style="fill:#1f77b4;fill-opacity:0.2;fill-rule:nonzero;stroke:#1f77b4;stroke-width:1;stroke-linecap:butt;stroke-linejoin:round;stroke-miterlimit:10;stroke-dasharray:none;stroke-opacity:0.2"
           id="path1116"
           inkscape:connector-curvature="0" />
        <path
           d="m 288.94126,253.43776 v -1.57008 l 0.99587,-0.61913 v 0.7736 0 z"
           style="fill:#1f77b4;fill-opacity:0.2;fill-rule:nonzero;stroke:#1f77b4;stroke-width:1;stroke-linecap:butt;stroke-linejoin:round;stroke-miterlimit:10;stroke-dasharray:none;stroke-opacity:0.2"
           id="path1118"
           inkscape:connector-curvature="0" />
        <path
           d="m 291.92888,251.55869 v -1.52035 z"
           style="fill:#1f77b4;fill-opacity:0.2;fill-rule:nonzero;stroke:#1f77b4;stroke-width:1;stroke-linecap:butt;stroke-linejoin:round;stroke-miterlimit:10;stroke-dasharray:none;stroke-opacity:0.2"
           id="path1120"
           inkscape:connector-curvature="0" />
        <path
           d="M 295.91237,250.66278 V 249.92 l 0.99587,-1.30954 v 1.46493 0 z"
           style="fill:#1f77b4;fill-opacity:0.2;fill-rule:nonzero;stroke:#1f77b4;stroke-width:1;stroke-linecap:butt;stroke-linejoin:round;stroke-miterlimit:10;stroke-dasharray:none;stroke-opacity:0.2"
           id="path1122"
           inkscape:connector-curvature="0" />
        <path
           d="m 298.89999,248.92625 v -0.72034 l 0.99587,-0.55492 0.99587,-0.54699 0.99588,-2.05863 0.99587,-2.53374 0.99587,-1.01771 v 0.65767 0 l -0.99587,1.97197 -0.99587,2.58398 -0.99588,1.10252 -0.99587,0.55407 z"
           style="fill:#1f77b4;fill-opacity:0.2;fill-rule:nonzero;stroke:#1f77b4;stroke-width:1;stroke-linecap:butt;stroke-linejoin:round;stroke-miterlimit:10;stroke-dasharray:none;stroke-opacity:0.2"
           id="path1124"
           inkscape:connector-curvature="0" />
        <path
           d="m 307.86284,241.53018 v -0.64234 z"
           style="fill:#1f77b4;fill-opacity:0.2;fill-rule:nonzero;stroke:#1f77b4;stroke-width:1;stroke-linecap:butt;stroke-linejoin:round;stroke-miterlimit:10;stroke-dasharray:none;stroke-opacity:0.2"
           id="path1126"
           inkscape:connector-curvature="0" />
        <path
           d="m 309.85459,241.2288 v -0.63494 l 0.99587,-0.45889 0.99588,-0.45287 0.99587,-1.06101 0.99587,-3.64264 0.99587,-3.27385 0.99588,-3.32021 v 1.82357 0 l -0.99588,2.97288 -0.99587,3.93024 -0.99587,2.7421 -0.99587,0.4525 -0.99588,0.4585 z"
           style="fill:#1f77b4;fill-opacity:0.2;fill-rule:nonzero;stroke:#1f77b4;stroke-width:1;stroke-linecap:butt;stroke-linejoin:round;stroke-miterlimit:10;stroke-dasharray:none;stroke-opacity:0.2"
           id="path1128"
           inkscape:connector-curvature="0" />
        <path
           d="m 317.82157,226.81425 v -1.56426 l 0.99588,-1.63268 v 1.01762 0 z"
           style="fill:#1f77b4;fill-opacity:0.2;fill-rule:nonzero;stroke:#1f77b4;stroke-width:1;stroke-linecap:butt;stroke-linejoin:round;stroke-miterlimit:10;stroke-dasharray:none;stroke-opacity:0.2"
           id="path1130"
           inkscape:connector-curvature="0" />
        <path
           d="m 320.80919,222.0301 v -1.98059 z"
           style="fill:#1f77b4;fill-opacity:0.2;fill-rule:nonzero;stroke:#1f77b4;stroke-width:1;stroke-linecap:butt;stroke-linejoin:round;stroke-miterlimit:10;stroke-dasharray:none;stroke-opacity:0.2"
           id="path1132"
           inkscape:connector-curvature="0" />
        <path
           d="m 323.79681,218.24018 v -1.30719 z"
           style="fill:#1f77b4;fill-opacity:0.2;fill-rule:nonzero;stroke:#1f77b4;stroke-width:1;stroke-linecap:butt;stroke-linejoin:round;stroke-miterlimit:10;stroke-dasharray:none;stroke-opacity:0.2"
           id="path1134"
           inkscape:connector-curvature="0" />
        <path
           d="m 325.78855,216.52313 v -1.07885 l 0.99588,-0.59319 v 0.44284 0 z"
           style="fill:#1f77b4;fill-opacity:0.2;fill-rule:nonzero;stroke:#1f77b4;stroke-width:1;stroke-linecap:butt;stroke-linejoin:round;stroke-miterlimit:10;stroke-dasharray:none;stroke-opacity:0.2"
           id="path1136"
           inkscape:connector-curvature="0" />
        <path
           d="m 328.77617,214.57583 v -1.23848 l 0.99588,-0.89261 0.99587,-0.63492 0.99587,-0.62512 0.99588,-0.61556 0.99587,-3.42995 0.99587,-2.05643 0.99587,-0.72821 0.99588,-5.06705 0.99587,-4.07741 0.99587,-1.20102 0.99587,-1.20308 0.99588,-4.5806 0.99587,-5.36982 0.99587,-4.46475 0.99588,-4.60811 0.99587,-2.15216 0.99587,-5.25252 0.99587,-4.88672 0.99588,-2.39422 0.99587,-2.71112 0.99587,-3.10155 0.99588,-1.82077 0.99587,-2.59567 0.99587,-2.38707 0.99588,-1.05185 0.99587,-2.43539 0.99587,-3.18959 0.99587,-1.75412 0.99588,-1.23466 0.99587,-2.28659 0.99587,-3.92568 0.99588,-2.09668 0.99587,-7.87051 v 1.10923 0 l -0.99587,6.9603 -0.99588,2.70121 -0.99587,3.7689 -0.99587,2.13728 -0.99588,1.14443 -0.99587,2.0586 -0.99587,3.26431 -0.99587,2.10601 -0.99588,1.10828 -0.99587,2.7453 -0.99587,2.18439 -0.99588,2.166 -0.99587,3.10392 -0.99587,2.72794 -0.99588,2.38246 -0.99587,5.57522 -0.99587,4.20163 -0.99587,2.95014 -0.99588,4.73695 -0.99587,4.32439 -0.99587,5.77309 -0.99588,3.73376 -0.99587,1.18621 -0.99587,1.30662 -0.99587,5.1044 -0.99588,3.90969 -0.99587,0.35609 -0.99587,3.28593 -0.99587,2.64348 -0.99588,0.62512 -0.99587,0.63488 -0.99587,0.2177 z"
           style="fill:#1f77b4;fill-opacity:0.2;fill-rule:nonzero;stroke:#1f77b4;stroke-width:1;stroke-linecap:butt;stroke-linejoin:round;stroke-miterlimit:10;stroke-dasharray:none;stroke-opacity:0.2"
           id="path1138"
           inkscape:connector-curvature="0" />
        <path
           d="m 363.63172,114.75762 v -0.23642 l 0.99588,-0.74322 0.99587,-2.12249 0.99587,-4.57511 0.99587,-3.35175 0.99588,-3.1249 0.99587,-2.170229 0.99587,-0.576695 0.99588,-1.744071 0.99587,-1.851792 0.99587,-2.461118 0.99587,-5.170337 0.99588,-3.209442 0.99587,-0.457311 0.99587,-3.356121 0.99588,-5.578714 0.99587,-5.625318 0.99587,-4.974683 0.99587,-2.502738 0.99588,-1.867162 0.99587,-2.055992 0.99587,-1.399997 0.99588,-0.707815 0.99587,-0.567003 0.99587,-0.351667 0.99587,-0.0068 0.99588,-0.122626 0.99587,-0.240204 0.99587,-0.17202 0.99588,-0.284303 0.99587,-0.284239 0.99587,-0.318595 0.99587,-0.276275 0.99588,-0.08603 0.99587,-0.331339 v 0.0052 0 l -0.99587,0.328062 -0.99588,0.08731 -0.99587,0.280088 -0.99587,0.316046 -0.99587,0.287842 -0.99588,0.281279 -0.99587,0.174093 -0.99587,0.240572 -0.99588,0.115868 -0.99587,0.0093 -0.99587,0.363601 -0.99587,0.564304 -0.99588,0.719571 -0.99587,1.413831 -0.99587,2.080311 -0.99588,1.851099 -0.99587,2.577277 -0.99587,5.035741 -0.99587,5.666191 -0.99588,5.650107 -0.99587,3.158662 -0.99587,0.472805 -0.99588,3.489549 -0.99587,5.11263 -0.99587,2.356596 -0.99587,1.920741 -0.99588,1.641323 -0.99587,0.508431 -0.99587,2.515906 -0.99588,2.92922 -0.99587,3.69071 -0.99587,4.4388 -0.99587,1.93 -0.99588,0.69151 z"
           style="fill:#1f77b4;fill-opacity:0.2;fill-rule:nonzero;stroke:#1f77b4;stroke-width:1;stroke-linecap:butt;stroke-linejoin:round;stroke-miterlimit:10;stroke-dasharray:none;stroke-opacity:0.2"
           id="path1140"
           inkscape:connector-curvature="0" />
      </g>
    </g>
    <g
       id="g1142"
       transform="matrix(0.35277777,0,0,-0.35277777,11.010988,230.72241)">
      <g
         id="g1144"
         clip-path="url(#clipPath1148)">
        <path
           d="m 229.18889,280.02901 v -9.4561 l 0.99587,-22.87306 0.99588,-13.00653 0.99587,-13.56918 0.99587,-10.05926 0.99587,-17.79785 1.99175,-11.27222 v 0.44256 0 l -1.99175,16.02605 -0.99587,15.33584 -0.99587,12.42724 -0.99587,12.74665 -0.99588,17.43018 z"
           style="fill:#ff7f0e;fill-opacity:0.2;fill-rule:nonzero;stroke:#ff7f0e;stroke-width:1;stroke-linecap:butt;stroke-linejoin:round;stroke-miterlimit:10;stroke-dasharray:none;stroke-opacity:0.2"
           id="path1150"
           inkscape:connector-curvature="0" />
        <path
           d="m 238.15175,177.16829 v -3.24469 l 0.99587,-5.41857 0.99587,-0.2625 0.99587,-1.66689 0.99588,-8.82431 0.99587,-4.11962 0.99587,-0.35682 0.99588,0.0883 0.99587,-3.05505 0.99587,-3.95197 0.99587,-1.10712 0.99588,-2.08464 0.99587,-2.56195 0.99587,-2.01487 0.99587,-7.53732 3.9835,-5.12882 0.99587,-0.8537 0.99587,-1.54646 0.99587,-1.52894 0.99588,-0.65899 v 0.76971 0 l -0.99588,0.23542 -0.99587,2.05632 -0.99587,1.14857 -0.99587,1.05022 -3.9835,6.94758 -0.99587,6.105 -0.99587,2.43912 -0.99587,2.51174 -0.99588,1.08152 -0.99587,2.00035 -0.99587,4.15756 -0.99587,1.78356 -0.99588,-0.0873 -0.99587,1.00118 -0.99587,5.94097 -0.99588,7.44309 -0.99587,0.67091 -0.99587,1.04432 -0.99587,7.53502 z"
           style="fill:#ff7f0e;fill-opacity:0.2;fill-rule:nonzero;stroke:#ff7f0e;stroke-width:1;stroke-linecap:butt;stroke-linejoin:round;stroke-miterlimit:10;stroke-dasharray:none;stroke-opacity:0.2"
           id="path1152"
           inkscape:connector-curvature="0" />
        <path
           d="M 301.88761,90.111769 V 88.345043 Z"
           style="fill:#ff7f0e;fill-opacity:0.2;fill-rule:nonzero;stroke:#ff7f0e;stroke-width:1;stroke-linecap:butt;stroke-linejoin:round;stroke-miterlimit:10;stroke-dasharray:none;stroke-opacity:0.2"
           id="path1154"
           inkscape:connector-curvature="0" />
        <path
           d="m 324.79268,80.010892 v -0.603438 l 0.99587,-0.827659 v 0.49849 0 z"
           style="fill:#ff7f0e;fill-opacity:0.2;fill-rule:nonzero;stroke:#ff7f0e;stroke-width:1;stroke-linecap:butt;stroke-linejoin:round;stroke-miterlimit:10;stroke-dasharray:none;stroke-opacity:0.2"
           id="path1156"
           inkscape:connector-curvature="0" />
        <path
           d="m 331.76379,77.750853 v -0.396557 l 0.99588,-0.758422 1.99174,-1.530235 1.99175,-0.595561 0.99587,-0.814633 1.99174,-0.358721 v 0.26088 0 l -1.99174,0.538234 -0.99587,0.589798 -1.99175,1.318655 -1.99174,1.010703 z"
           style="fill:#ff7f0e;fill-opacity:0.2;fill-rule:nonzero;stroke:#ff7f0e;stroke-width:1;stroke-linecap:butt;stroke-linejoin:round;stroke-miterlimit:10;stroke-dasharray:none;stroke-opacity:0.2"
           id="path1158"
           inkscape:connector-curvature="0" />
        <path
           d="m 345.70601,72.748237 v -0.54857 z"
           style="fill:#ff7f0e;fill-opacity:0.2;fill-rule:nonzero;stroke:#ff7f0e;stroke-width:1;stroke-linecap:butt;stroke-linejoin:round;stroke-miterlimit:10;stroke-dasharray:none;stroke-opacity:0.2"
           id="path1160"
           inkscape:connector-curvature="0" />
        <path
           d="m 347.69776,71.838976 v -0.04249 l 0.99587,-0.467341 0.99587,-0.528092 0.99588,-0.141004 0.99587,-0.34112 5.97524,-0.08811 0.99587,-0.196817 0.99587,-1.006485 0.99588,-0.66697 0.99587,-0.723999 v 0.358472 0 l -0.99587,0.534361 -0.99588,0.970849 -0.99587,0.719039 -0.99587,0.269362 -5.97524,0.138771 -0.99587,0.152623 -0.99588,0.371797 -0.99587,0.502537 -0.99587,0.184615 z"
           style="fill:#ff7f0e;fill-opacity:0.2;fill-rule:nonzero;stroke:#ff7f0e;stroke-width:1;stroke-linecap:butt;stroke-linejoin:round;stroke-miterlimit:10;stroke-dasharray:none;stroke-opacity:0.2"
           id="path1162"
           inkscape:connector-curvature="0" />
        <path
           d="m 379.56569,63.38388 v -0.339712 l 0.99587,-0.515677 2.98762,-0.378552 v 0.269786 0 l -2.98762,0.390189 z"
           style="fill:#ff7f0e;fill-opacity:0.2;fill-rule:nonzero;stroke:#ff7f0e;stroke-width:1;stroke-linecap:butt;stroke-linejoin:round;stroke-miterlimit:10;stroke-dasharray:none;stroke-opacity:0.2"
           id="path1164"
           inkscape:connector-curvature="0" />
        <path
           d="M 385.54093,61.73099 V 61.293477 Z"
           style="fill:#ff7f0e;fill-opacity:0.2;fill-rule:nonzero;stroke:#ff7f0e;stroke-width:1;stroke-linecap:butt;stroke-linejoin:round;stroke-miterlimit:10;stroke-dasharray:none;stroke-opacity:0.2"
           id="path1166"
           inkscape:connector-curvature="0" />
        <path
           d="m 389.52442,60.597921 v -0.464293 l 0.99587,-1.419566 0.99587,-0.666588 v 0.175991 0 l -0.99587,0.97832 z"
           style="fill:#ff7f0e;fill-opacity:0.2;fill-rule:nonzero;stroke:#ff7f0e;stroke-width:1;stroke-linecap:butt;stroke-linejoin:round;stroke-miterlimit:10;stroke-dasharray:none;stroke-opacity:0.2"
           id="path1168"
           inkscape:connector-curvature="0" />
        <path
           d="m 393.50791,57.743518 v -0.245999 l 0.99587,-0.917856 1.99175,-0.638313 0.99587,-1.331103 v 0.50612 0 l -0.99587,1.002165 -1.99175,0.690175 z"
           style="fill:#ff7f0e;fill-opacity:0.2;fill-rule:nonzero;stroke:#ff7f0e;stroke-width:1;stroke-linecap:butt;stroke-linejoin:round;stroke-miterlimit:10;stroke-dasharray:none;stroke-opacity:0.2"
           id="path1170"
           inkscape:connector-curvature="0" />
      </g>
    </g>
    <g
       id="g1172"
       transform="matrix(0.35277777,0,0,-0.35277777,11.010988,230.72241)">
      <g
         id="g1174"
         clip-path="url(#clipPath1178)">
        <path
           d="m 158.20019,148.12061 v -0.50004 l 2.13589,-0.0184 1.06794,0.23123 1.06794,-1.75895 1.06794,-2.06361 1.06795,-2.02716 1.06794,-3.38777 1.06794,-1.51265 v 0.36088 0 l -1.06794,2.8512 -1.06794,2.79861 -1.06795,2.11294 -1.06794,2.86015 -1.06794,0.25013 -1.06794,0.2648 -2.13589,-0.46134 z"
           style="fill:#2ca02c;fill-opacity:0.2;fill-rule:nonzero;stroke:#2ca02c;stroke-width:1;stroke-linecap:butt;stroke-linejoin:round;stroke-miterlimit:10;stroke-dasharray:none;stroke-opacity:0.2"
           id="path1180"
           inkscape:connector-curvature="0" />
        <path
           d="m 168.87962,137.68238 v -1.09985 l 1.06794,-0.92102 1.06794,-0.22114 1.06794,-1.97347 1.06795,-1.24337 v 0.60376 0 l -1.06795,1.92873 -1.06794,1.35098 -1.06794,0.23492 z"
           style="fill:#2ca02c;fill-opacity:0.2;fill-rule:nonzero;stroke:#2ca02c;stroke-width:1;stroke-linecap:butt;stroke-linejoin:round;stroke-miterlimit:10;stroke-dasharray:none;stroke-opacity:0.2"
           id="path1182"
           inkscape:connector-curvature="0" />
        <path
           d="m 175.28727,132.98469 v -0.74156 z"
           style="fill:#2ca02c;fill-opacity:0.2;fill-rule:nonzero;stroke:#2ca02c;stroke-width:1;stroke-linecap:butt;stroke-linejoin:round;stroke-miterlimit:10;stroke-dasharray:none;stroke-opacity:0.2"
           id="path1184"
           inkscape:connector-curvature="0" />
        <path
           d="m 177.42316,132.69231 v -0.76676 l 1.06794,-1.32232 1.06794,-0.39063 v 0.2688 0 l -1.06794,1.04398 z"
           style="fill:#2ca02c;fill-opacity:0.2;fill-rule:nonzero;stroke:#2ca02c;stroke-width:1;stroke-linecap:butt;stroke-linejoin:round;stroke-miterlimit:10;stroke-dasharray:none;stroke-opacity:0.2"
           id="path1186"
           inkscape:connector-curvature="0" />
        <path
           d="m 181.69493,131.28781 v -0.26879 l 1.06794,0.26351 1.06794,-0.32073 1.06795,-1.1721 1.06794,-0.66787 v 0.49498 0 l -1.06794,1.08033 -1.06795,0.89954 -1.06794,-0.0463 -1.06794,-0.26261 z"
           style="fill:#2ca02c;fill-opacity:0.2;fill-rule:nonzero;stroke:#2ca02c;stroke-width:1;stroke-linecap:butt;stroke-linejoin:round;stroke-miterlimit:10;stroke-dasharray:none;stroke-opacity:0.2"
           id="path1188"
           inkscape:connector-curvature="0" />
        <path
           d="m 188.10258,129.8828 v -0.48902 l 1.06795,0.13269 1.06794,-0.22744 1.06794,-0.41627 1.06794,-0.80465 1.06795,-0.59557 1.06794,-3.26047 1.06794,-2.10255 1.06794,-0.026 1.06795,-1.88494 1.06794,-2.02387 1.06794,-1.17506 1.06794,-3.09981 1.06795,-2.34798 1.06794,-1.04783 1.06794,-0.16886 1.06794,-0.52048 1.06795,-0.19266 v 0.11833 0 l -1.06795,0.52698 -1.06794,0.19101 -1.06794,0.57366 -1.06794,0.87533 -1.06795,2.93711 -1.06794,2.70475 -1.06794,1.24116 -1.06794,2.31843 -1.06795,1.34939 -1.06794,0.0294 -1.06794,2.97137 -1.06794,2.54807 -1.06795,0.74473 -1.06794,0.74781 -1.06794,0.50942 -1.06794,-0.25033 -1.06795,0.11422 z"
           style="fill:#2ca02c;fill-opacity:0.2;fill-rule:nonzero;stroke:#2ca02c;stroke-width:1;stroke-linecap:butt;stroke-linejoin:round;stroke-miterlimit:10;stroke-dasharray:none;stroke-opacity:0.2"
           id="path1190"
           inkscape:connector-curvature="0" />
        <path
           d="m 208.39349,110.07768 v -0.39154 l 1.06795,-2.50891 1.06794,-2.93373 1.06794,-3.00859 1.06794,-1.268671 1.06795,-0.592105 1.06794,-1.528175 1.06794,-0.899374 v 0.06827 0 l -1.06794,1.393287 -1.06794,1.321036 -1.06795,0.448662 -1.06794,1.66125 -1.06794,3.26218 -1.06794,2.91935 z"
           style="fill:#2ca02c;fill-opacity:0.2;fill-rule:nonzero;stroke:#2ca02c;stroke-width:1;stroke-linecap:butt;stroke-linejoin:round;stroke-miterlimit:10;stroke-dasharray:none;stroke-opacity:0.2"
           id="path1192"
           inkscape:connector-curvature="0" />
        <path
           d="m 218.00498,95.420093 v -0.598014 l 1.06794,-3.263631 1.06794,-1.739874 1.06794,-0.812942 1.06795,-1.016177 1.06794,-1.026499 1.06794,-0.948621 1.06794,-0.176716 1.06795,-0.601809 1.06794,-0.663361 1.06794,-0.740557 v 0.226872 0 l -1.06794,0.699938 -1.06794,0.733737 -1.06795,0.457013 -1.06794,0.241377 -1.06794,1.104246 -1.06794,1.218148 -1.06795,0.73892 -1.06794,0.880043 -1.06794,1.930926 z"
           style="fill:#2ca02c;fill-opacity:0.2;fill-rule:nonzero;stroke:#2ca02c;stroke-width:1;stroke-linecap:butt;stroke-linejoin:round;stroke-miterlimit:10;stroke-dasharray:none;stroke-opacity:0.2"
           id="path1194"
           inkscape:connector-curvature="0" />
        <path
           d="M 230.82029,83.564591 V 83.44153 l 1.06794,-0.35729 1.06794,-0.149351 1.06794,-0.249577 1.06795,-0.391163 1.06794,-0.584032 v 0.180012 0 l -1.06794,0.550018 -1.06795,0.399563 -1.06794,0.167078 -1.06794,0.254092 z"
           style="fill:#2ca02c;fill-opacity:0.2;fill-rule:nonzero;stroke:#2ca02c;stroke-width:1;stroke-linecap:butt;stroke-linejoin:round;stroke-miterlimit:10;stroke-dasharray:none;stroke-opacity:0.2"
           id="path1196"
           inkscape:connector-curvature="0" />
        <path
           d="M 238.29588,81.365136 V 81.21151 l 1.06795,-0.331835 1.06794,-0.366738 1.06794,-0.417698 1.06795,-0.186747 1.06794,-0.09508 1.06794,-0.135641 1.06794,0.0084 1.06795,-0.350712 1.06794,-1.256501 1.06794,-0.839848 1.06794,-0.416021 1.06795,-1.116132 1.06794,-0.719548 1.06794,-0.192224 1.06794,-0.03909 1.06795,-1.061682 v 0.201196 0 l -1.06795,0.875349 -1.06794,0.112623 -1.06794,0.168315 -1.06794,0.844723 -1.06795,1.065111 -1.06794,0.374206 -1.06794,0.983252 -1.06794,1.175825 -1.06795,0.236134 -1.06794,0.04635 -1.06794,0.127884 -1.06794,0.09004 -1.06795,0.224965 -1.06794,0.432825 -1.06794,0.338869 -1.06795,0.373109 z"
           style="fill:#2ca02c;fill-opacity:0.2;fill-rule:nonzero;stroke:#2ca02c;stroke-width:1;stroke-linecap:butt;stroke-linejoin:round;stroke-miterlimit:10;stroke-dasharray:none;stroke-opacity:0.2"
           id="path1198"
           inkscape:connector-curvature="0" />
        <path
           d="m 257.51885,72.907603 v -0.05689 l 1.06794,-0.229511 1.06795,-0.3819 1.06794,-0.309679 1.06794,-0.158051 1.06794,-0.178833 1.06795,-0.214513 1.06794,-0.108206 1.06794,-0.591517 1.06794,-1.067633 1.06795,-0.464973 1.06794,-0.162329 1.06794,-0.121164 1.06794,-0.06685 1.06795,-0.540099 1.06794,-1.021788 1.06794,-0.780479 1.06795,-0.281407 1.06794,-0.492214 1.06794,-0.283523 1.06794,-0.209956 1.06795,-0.403349 1.06794,-0.292612 1.06794,-0.37905 1.06794,-0.381732 1.06795,-0.296926 1.06794,-0.138838 1.06794,0.02069 1.06794,-0.138893 1.06795,-0.486397 1.06794,-0.50996 1.06794,-0.273236 1.06794,-0.08937 1.06795,0.02244 1.06794,-0.232068 1.06794,-0.162488 1.06794,-0.307769 1.06795,-0.624198 1.06794,-0.292462 1.06794,-0.635783 1.06794,-0.586111 1.06795,-0.06617 1.06794,-0.44468 1.06794,-1.190373 2.13589,-0.527204 1.06794,-0.277658 3.20383,-1.144872 1.06794,-0.422103 1.06794,-0.199562 1.06795,-0.229949 1.06794,-0.298853 1.06794,-0.19773 3.20383,-0.04869 1.06794,-0.152534 1.06794,-0.44076 1.06795,-0.427147 v 0.02145 0 l -1.06795,0.478461 -1.06794,0.396458 -1.06794,0.124334 -3.20383,0.05457 -1.06794,0.224641 -1.06794,0.278565 -1.06795,0.240594 -1.06794,0.22239 -1.06794,0.405577 -3.20383,1.146388 -1.06794,0.287103 -2.13589,0.570795 -1.06794,1.206672 -1.06794,0.360536 -1.06795,0.098 -1.06794,0.61963 -1.06794,0.579013 -1.06794,0.315897 -1.06795,0.635457 -1.06794,0.250634 -1.06794,0.211756 -1.06794,0.195527 -1.06795,-0.03216 -1.06794,0.123598 -1.06794,0.282078 -1.06794,0.54695 -1.06795,0.437741 -1.06794,0.109158 -1.06794,-0.004 -1.06794,0.158226 -1.06795,0.312644 -1.06794,0.387974 -1.06794,0.37089 -1.06794,0.296872 -1.06795,0.408624 -1.06794,0.155437 -1.06794,0.345018 -1.06794,0.47057 -1.06795,0.288899 -1.06794,0.828736 -1.06794,1.016524 -1.06795,0.486422 -1.06794,0.05563 -1.06794,0.145988 -1.06794,0.142994 -1.06795,0.539911 -1.06794,1.081504 -1.06794,0.505581 -1.06794,0.130395 -1.06795,0.224228 -1.06794,0.163389 -1.06794,0.186646 -1.06794,0.318535 -1.06795,0.374814 -1.06794,0.193633 z"
           style="fill:#2ca02c;fill-opacity:0.2;fill-rule:nonzero;stroke:#2ca02c;stroke-width:1;stroke-linecap:butt;stroke-linejoin:round;stroke-miterlimit:10;stroke-dasharray:none;stroke-opacity:0.2"
           id="path1200"
           inkscape:connector-curvature="0" />
        <path
           d="m 325.86718,52.808124 v -0.0043 l 1.06794,-0.05226 1.06794,-0.08223 1.06794,-0.09573 1.06795,-0.06317 1.06794,0.0076 1.06794,-0.09296 v 0.03563 0 l -1.06794,0.0576 -1.06794,0.01558 -1.06795,0.04028 -1.06794,0.105638 -1.06794,0.08768 -1.06794,0.0407 z"
           style="fill:#2ca02c;fill-opacity:0.2;fill-rule:nonzero;stroke:#2ca02c;stroke-width:1;stroke-linecap:butt;stroke-linejoin:round;stroke-miterlimit:10;stroke-dasharray:none;stroke-opacity:0.2"
           id="path1202"
           inkscape:connector-curvature="0" />
        <path
           d="m 348.29397,51.315579 v -0.0032 z"
           style="fill:#2ca02c;fill-opacity:0.2;fill-rule:nonzero;stroke:#2ca02c;stroke-width:1;stroke-linecap:butt;stroke-linejoin:round;stroke-miterlimit:10;stroke-dasharray:none;stroke-opacity:0.2"
           id="path1204"
           inkscape:connector-curvature="0" />
        <path
           d="m 351.4978,51.252387 v -0.0043 z"
           style="fill:#2ca02c;fill-opacity:0.2;fill-rule:nonzero;stroke:#2ca02c;stroke-width:1;stroke-linecap:butt;stroke-linejoin:round;stroke-miterlimit:10;stroke-dasharray:none;stroke-opacity:0.2"
           id="path1206"
           inkscape:connector-curvature="0" />
      </g>
    </g>
    <g
       id="g1208"
       transform="matrix(0.35277777,0,0,-0.35277777,11.010988,230.72241)">
      <g
         id="g1210"
         clip-path="url(#clipPath1214)">
        <path
           d="M 73.832727,292.032 V 50.112 Z"
           style="fill:#d62728;fill-opacity:0.2;fill-rule:nonzero;stroke:#d62728;stroke-width:1;stroke-linecap:butt;stroke-linejoin:round;stroke-miterlimit:10;stroke-dasharray:none;stroke-opacity:0.2"
           id="path1216"
           inkscape:connector-curvature="0" />
        <path
           d="m 75.968612,144.08503 v -34.75474 l 1.067943,-26.661629 1.067943,-12.646872 1.067942,-3.678508 1.067943,-11.435661 1.067942,-2.743906 1.067943,-0.04614 1.067943,0.192914 1.067942,0.176722 1.067943,0.07814 1.067942,0.06183 1.067943,0.138849 1.067942,0.131447 1.067943,0.06413 1.067943,-0.04756 1.067942,-0.178731 1.067943,-0.540933 1.067942,-0.334279 1.067943,-0.155292 1.067943,-0.274894 1.067942,-0.202463 1.067943,-0.09394 1.067942,-0.08939 1.067941,-0.05071 1.06794,-0.0024 1.06795,-0.09384 1.06794,-0.08205 1.06794,-0.0047 1.06794,0.0025 1.06795,0.0068 1.06794,0.01239 1.06794,-0.01204 1.06794,-0.01128 1.06795,0.01411 1.06794,0.01726 1.06794,0.01778 1.06795,0.01389 1.06794,0.01161 1.06794,0.01037 1.06794,0.008 1.06795,-0.0044 1.06794,-0.02268 1.06794,-0.0061 1.06794,0.01224 1.06795,-4.78e-4 1.06794,-0.04355 1.06794,-0.03426 1.06794,0.0063 1.06795,-0.0041 1.06794,-0.0049 1.06794,-0.0054 1.06794,-0.01174 1.06795,-0.0069 1.06794,-9.54e-4 1.06794,0.0045 1.06794,0.0014 1.06795,-0.01031 1.06794,-0.0044 1.06794,-0.03793 1.06794,-0.04122 1.06795,-0.0049 1.06794,-0.01648 1.06794,-0.01297 1.06794,-0.0015 1.06795,0.002 1.06794,0.0074 1.06794,-0.0019 1.06795,-0.0013 1.06794,-0.0027 1.06794,-0.01023 1.06794,-0.0028 1.06795,0.003 1.06794,0.005 1.06794,0.0068 1.06794,0.0017 1.06795,2e-4 1.06794,0.0039 1.06794,0.0036 1.06794,-0.0042 1.06795,-0.008 1.06794,-0.01231 1.06794,-0.0078 1.06794,9.37e-4 1.06795,0.0013 1.06794,-5.23e-4 1.06794,-3.79e-4 1.06794,0.0043 1.06795,0.0054 1.06794,-0.01104 1.06794,-0.01297 1.06794,0.0022 1.06795,-0.0026 1.06794,-0.0045 1.06794,-0.0073 1.06795,-0.0063 1.06794,0.0031 1.06794,0.0031 1.06794,0.0031 1.06795,0.0036 1.06794,0.0033 1.06794,0.0039 1.06794,0.0045 1.06795,0.003 1.06794,0.0016 1.06794,0.0014 1.06794,-0.0025 1.06795,-0.0012 1.06794,0.0025 1.06794,-0.0044 1.06794,-0.009 1.06795,-0.002 1.06794,0.0026 1.06794,0.0029 1.06794,0.0021 1.06795,4.82e-4 1.06794,-8.4e-5 1.06794,4.1e-5 1.06794,0.0024 1.06795,0.0035 1.06794,0.003 1.06794,0.0019 1.06794,0.0015 1.06795,-4.38e-4 1.06794,-0.0032 1.06794,-0.0011 1.06795,5.98e-4 1.06794,0.002 1.06794,0.0027 1.06794,-0.0037 1.06795,-0.0026 1.06794,0.0028 1.06794,0.0016 1.06794,-3.61e-4 1.06795,-0.0014 1.06794,-10e-4 v 2.03e-4 0 l -1.06794,0.0011 -1.06795,0.0014 -1.06794,3.07e-4 -1.06794,-0.0016 -1.06794,-0.0029 -1.06795,0.0029 -1.06794,0.0035 -1.06794,-0.0028 -1.06794,-0.0019 -1.06795,-6.41e-4 -1.06794,0.0013 -1.06794,0.0031 -1.06795,3.48e-4 -1.06794,-0.0014 -1.06794,-0.002 -1.06794,-0.003 -1.06795,-0.0036 -1.06794,-0.0023 -1.06794,2e-6 -1.06794,6.5e-5 -1.06795,-4.82e-4 -1.06794,-0.0023 -1.06794,-0.0028 -1.06794,-0.0026 -1.06795,0.0023 -1.06794,0.0091 -1.06794,0.0042 -1.06794,-0.0026 -1.06795,0.0014 -1.06794,0.0024 -1.06794,-0.0014 -1.06794,-0.0015 -1.06795,-0.0032 -1.06794,-0.0044 -1.06794,-0.0038 -1.06794,-0.0033 -1.06795,-0.0036 -1.06794,-0.003 -1.06794,-0.0033 -1.06794,-0.003 -1.06795,0.0066 -1.06794,0.0071 -1.06794,0.0047 -1.06795,0.0022 -1.06794,-0.002 -1.06794,0.01335 -1.06794,0.01045 -1.06795,-0.0054 -1.06794,-0.0041 -1.06794,5.57e-4 -1.06794,3.41e-4 -1.06795,-0.0012 -1.06794,-10e-4 -1.06794,0.0082 -1.06794,0.01212 -1.06795,0.0082 -1.06794,0.0038 -1.06794,-0.0037 -1.06794,-0.0039 -1.06795,-2.1e-5 -1.06794,-0.0021 -1.06794,-0.0068 -1.06794,-0.0048 -1.06795,-0.003 -1.06794,0.0031 -1.06794,0.0103 -1.06794,0.0021 -1.06795,0.0019 -1.06794,0.0014 -1.06794,-0.0075 -1.06795,-0.0015 -1.06794,0.0013 -1.06794,0.01357 -1.06794,0.01606 -1.06795,0.005 -1.06794,0.04211 -1.06794,0.0366 -1.06794,0.0053 -1.06795,0.0099 -1.06794,-0.0015 -1.06794,-0.0046 -1.06794,0.0014 -1.06795,0.0068 -1.06794,0.012 -1.06794,0.0047 -1.06794,0.0058 -1.06795,0.0031 -1.06794,-0.0057 -1.06794,0.03566 -1.06794,0.04264 -1.06795,-1.86e-4 -1.06794,-0.01246 -1.06794,0.0075 -1.06794,0.02251 -1.06795,0.0035 -1.06794,-0.0079 -1.06794,-0.01069 -1.06794,-0.01131 -1.06795,-0.01463 -1.06794,-0.01739 -1.06794,-0.01757 -1.06795,-0.01346 -1.06794,0.01242 -1.06794,0.01094 -1.06794,-0.01253 -1.06795,-0.0061 -1.06794,-0.0028 -1.06794,0.0054 -1.06794,0.085 -1.06795,0.09155 -1.06794,0.002 -1.067941,0.05386 -1.067942,0.08897 -1.067943,0.09665 -1.067942,0.206602 -1.067943,0.278533 -1.067943,0.150248 -1.067942,0.357418 -1.067943,0.536232 -1.067942,0.177261 -1.067943,0.04326 -1.067943,-0.07111 -1.067942,-0.135976 -1.067943,-0.133638 -1.067942,-0.05196 -1.067943,-0.09053 -1.067942,-0.177574 -1.067943,-0.195833 -1.067943,0.08109 -1.067942,3.204904 -1.067943,12.116404 -1.067942,5.262784 -1.067943,19.464929 -1.067943,51.826868 z"
           style="fill:#d62728;fill-opacity:0.2;fill-rule:nonzero;stroke:#d62728;stroke-width:1;stroke-linecap:butt;stroke-linejoin:round;stroke-miterlimit:10;stroke-dasharray:none;stroke-opacity:0.2"
           id="path1218"
           inkscape:connector-curvature="0" />
        <path
           d="m 221.2088,50.634498 v -2.62e-4 l 1.06795,-3.43e-4 1.06794,0.0029 1.06794,8.23e-4 1.06794,-0.0041 1.06795,-0.0016 1.06794,0.0022 1.06794,-0.0079 1.06794,-0.0084 1.06795,-0.0023 1.06794,-8.46e-4 1.06794,0.002 1.06794,-0.0055 1.06795,-0.0045 1.06794,0.0028 1.06794,0.0022 1.06794,6.48e-4 1.06795,9.43e-4 1.06794,-0.0039 1.06794,-0.0035 1.06795,0.0022 1.06794,0.0025 1.06794,0.0024 1.06794,-0.0017 1.06795,-0.0013 1.06794,0.0012 1.06794,-0.0034 1.06794,-0.0044 1.06795,-0.0099 1.06794,-0.0071 1.06794,0.0018 1.06794,-6.15e-4 1.06795,-4.1e-4 1.06794,0.002 1.06794,0.0013 1.06794,-0.002 1.06795,-0.0026 1.06794,8.54e-4 1.06794,0.0024 1.06794,0.0015 1.06795,-1.11e-4 1.06794,-3.32e-4 1.06794,0.0014 1.06794,0.0023 1.06795,0.0022 1.06794,0.002 1.06794,0.0014 1.06794,0.0013 1.06795,-0.0042 1.06794,-0.004 1.06794,-2.96e-4 1.06795,-6.97e-4 1.06794,0.0012 1.06794,0.0016 1.06794,-0.0045 1.06795,-0.0052 1.06794,0.0011 1.06794,0.0022 1.06794,2.65e-4 1.06795,1.22e-4 1.06794,5.74e-4 1.06794,-7.45e-4 1.06794,6.04e-4 1.06795,0.0021 1.06794,8.63e-4 1.06794,9.47e-4 1.06794,8e-4 1.06795,6.6e-4 1.06794,-0.002 1.06794,-0.0022 1.06794,-6.01e-4 1.06795,-5.88e-4 1.06794,0.0012 1.06794,-2.56e-4 1.06794,-3.21e-4 1.06795,9.29e-4 1.06794,0.0011 1.06794,0.002 1.06794,0.0016 1.06795,-1.9e-4 1.06794,-2.2e-4 1.06794,0.0012 1.06795,0.0012 1.06794,8.2e-4 1.06794,7.4e-4 1.06794,7.06e-4 1.06795,-0.0011 1.06794,-9.87e-4 1.06794,8.74e-4 1.06794,0.0011 1.06795,0.0016 1.06794,-0.0016 1.06794,-0.002 1.06794,1.14e-4 1.06795,6.64e-4 1.06794,7.01e-4 1.06794,-2.29e-4 1.06794,6.23e-4 1.06795,0.0016 1.06794,-1.9e-5 1.06794,-9.48e-4 1.06794,-1.83e-4 1.06795,9.5e-4 1.06794,0.0015 1.06794,-7.62e-4 1.06795,-2.08e-4 1.06794,0.0014 1.06794,0.0012 1.06794,0.0011 1.06795,8e-5 1.06794,2.89e-4 1.06794,0.0012 1.06794,6.09e-4 1.06795,4.64e-4 1.06794,9.62e-4 1.06794,0.0014 1.06794,0.0017 1.06795,2.95e-4 1.06794,-7.57e-4 1.06794,-2.78e-4 1.06794,5.6e-4 1.06795,9.94e-4 1.06794,6.23e-4 1.06794,6.9e-4 1.06794,0.0014 1.06795,0.0017 1.06794,9.8e-4 1.06794,0.0011 1.06794,0.0016 1.06795,0.0016 1.06794,7.59e-4 1.06794,-8.31e-4 1.06795,-9.83e-4 1.06794,4.53e-4 1.06794,0.0015 1.06794,0.0015 1.06794,0.0011 1.06795,-0.0025 1.06794,-0.0035 1.06794,-4.75e-4 1.06795,9.85e-4 1.06794,0.0016 1.06794,0.0015 1.06794,0.0015 1.06795,7.87e-4 1.06794,-1.19e-4 1.06794,8.04e-4 1.06794,0.0013 1.06795,0.0012 1.06794,0.0015 1.06794,1.85e-4 1.06794,2.12e-4 1.06795,0.0016 1.06794,0.0013 1.06794,0.001 1.06794,0.0013 1.06795,0.0013 1.06794,0.0014 1.06794,0.0016 1.06794,0.0017 1.06795,0.0015 1.06794,0.0016 1.06794,0.0017 1.06794,0.0017 1.06795,0.0017 1.06794,0.0017 v 1.1e-5 0 l -1.06794,-0.0017 -1.06795,-0.0017 -1.06794,-0.0017 -1.06794,-0.0017 -1.06794,-0.0015 -1.06795,-0.0015 -1.06794,-0.0017 -1.06794,-0.0016 -1.06794,-0.0014 -1.06795,-0.0013 -1.06794,-0.0012 -1.06794,-0.001 -1.06794,-0.0014 -1.06795,-0.0015 -1.06794,-1.37e-4 -1.06794,-2.65e-4 -1.06794,-0.0015 -1.06795,-0.0012 -1.06794,-0.0014 -1.06794,-7.22e-4 -1.06794,1.09e-4 -1.06795,-8.51e-4 -1.06794,-0.0015 -1.06794,-0.0015 -1.06794,-0.0016 -1.06795,-9.32e-4 -1.06794,5.14e-4 -1.06794,0.0035 -1.06795,0.0024 -1.06794,-0.0012 -1.06794,-0.0015 -1.06794,-0.0014 -1.06794,-3.92e-4 -1.06795,9.97e-4 -1.06794,8.04e-4 -1.06794,-8.32e-4 -1.06795,-0.0016 -1.06794,-0.0016 -1.06794,-10e-4 -1.06794,-10e-4 -1.06795,-0.0017 -1.06794,-0.0014 -1.06794,-6.66e-4 -1.06794,-6.41e-4 -1.06795,-9.94e-4 -1.06794,-5.31e-4 -1.06794,2.91e-4 -1.06794,7.7e-4 -1.06795,-3.7e-4 -1.06794,-0.0017 -1.06794,-0.0014 -1.06794,-9.57e-4 -1.06795,-4.35e-4 -1.06794,-6.51e-4 -1.06794,-0.0012 -1.06794,-2.35e-4 -1.06795,-1.22e-4 -1.06794,-0.0011 -1.06794,-0.0012 -1.06794,-0.0015 -1.06795,3.33e-4 -1.06794,6.82e-4 -1.06794,-0.0015 -1.06795,-8.58e-4 -1.06794,1.81e-4 -1.06794,9.84e-4 -1.06794,-8.8e-5 -1.06795,-0.0015 -1.06794,-5.74e-4 -1.06794,2.4e-4 -1.06794,-7.96e-4 -1.06795,-5.71e-4 -1.06794,-1.6e-4 -1.06794,0.0022 -1.06794,0.0015 -1.06795,-0.0015 -1.06794,-0.0011 -1.06794,-8.57e-4 -1.06794,0.0011 -1.06795,9.81e-4 -1.06794,-7.1e-4 -1.06794,-7.33e-4 -1.06794,-8.3e-4 -1.06795,-0.0012 -1.06794,-0.0012 -1.06794,2.69e-4 -1.06795,1.36e-4 -1.06794,-0.0017 -1.06794,-0.0019 -1.06794,-0.0011 -1.06795,-9.59e-4 -1.06794,4.12e-4 -1.06794,1.55e-4 -1.06794,-0.0012 -1.06795,6.54e-4 -1.06794,5.41e-4 -1.06794,0.0023 -1.06794,0.0019 -1.06795,-6.05e-4 -1.06794,-8.73e-4 -1.06794,-8.79e-4 -1.06794,-9.33e-4 -1.06795,-0.0021 -1.06794,-4.92e-4 -1.06794,7.32e-4 -1.06794,-6.37e-4 -1.06795,-3.6e-5 -1.06794,-3.69e-4 -1.06794,-0.0022 -1.06794,-9.44e-4 -1.06795,0.0053 -1.06794,0.0043 -1.06794,-0.0016 -1.06794,-0.0011 -1.06795,7.45e-4 -1.06794,2.18e-4 -1.06794,0.0042 -1.06795,0.004 -1.06794,-0.0013 -1.06794,-0.0014 -1.06794,-0.002 -1.06795,-0.0022 -1.06794,-0.0023 -1.06794,-0.0014 -1.06794,3.69e-4 -1.06795,6.3e-5 -1.06794,-0.0016 -1.06794,-0.0025 -1.06794,-6.98e-4 -1.06795,0.0027 -1.06794,0.002 -1.06794,-0.0014 -1.06794,-0.0019 -1.06795,5.02e-4 -1.06794,5.37e-4 -1.06794,-0.0018 -1.06794,0.0074 -1.06795,0.0097 -1.06794,0.0045 -1.06794,0.0033 -1.06794,-0.0013 -1.06795,0.0015 -1.06794,0.0016 -1.06794,-0.0024 -1.06794,-0.0025 -1.06795,-0.0023 -1.06794,0.0037 -1.06794,0.0037 -1.06795,-8.58e-4 -1.06794,-7.14e-4 -1.06794,-0.0022 -1.06794,-0.0029 -1.06795,0.0049 -1.06794,0.0052 -1.06794,-0.002 -1.06794,10e-4 -1.06795,0.0022 -1.06794,0.0087 -1.06794,0.0076 -1.06794,-0.0023 -1.06795,0.0018 -1.06794,0.004 -1.06794,-10e-4 -1.06794,-0.0028 -1.06795,4.74e-4 z"
           style="fill:#d62728;fill-opacity:0.2;fill-rule:nonzero;stroke:#d62728;stroke-width:1;stroke-linecap:butt;stroke-linejoin:round;stroke-miterlimit:10;stroke-dasharray:none;stroke-opacity:0.2"
           id="path1220"
           inkscape:connector-curvature="0" />
      </g>
    </g>
    <path
       inkscape:connector-curvature="0"
       id="path1224"
       style="fill:#000000;fill-opacity:1;fill-rule:nonzero;stroke:#000000;stroke-width:0.28222221;stroke-linecap:butt;stroke-linejoin:round;stroke-miterlimit:10;stroke-dasharray:none;stroke-opacity:1"
       d="m 37.057533,217.31121 v 1.23472" />
    <text
       id="text1228"
       style="font-variant:normal;font-weight:normal;font-size:3.52777767px;font-family:'DejaVu Sans';-inkscape-font-specification:DejaVuSans;writing-mode:lr-tb;fill:#000000;fill-opacity:1;fill-rule:nonzero;stroke:none;stroke-width:0.35277778"
       x="34.251846"
       y="222.45956">
      <tspan
         id="tspan1226"
         sodipodi:role="line"
         y="222.45956"
         x="34.251846 36.495514 37.617348"
         style="stroke-width:0.35277778">0.0</tspan>
    </text>
    <path
       inkscape:connector-curvature="0"
       id="path1230"
       style="fill:#000000;fill-opacity:1;fill-rule:nonzero;stroke:#000000;stroke-width:0.28222221;stroke-linecap:butt;stroke-linejoin:round;stroke-miterlimit:10;stroke-dasharray:none;stroke-opacity:1"
       d="m 59.963715,217.31121 v 1.23472" />
    <text
       id="text1234"
       style="font-variant:normal;font-weight:normal;font-size:3.52777767px;font-family:'DejaVu Sans';-inkscape-font-specification:DejaVuSans;writing-mode:lr-tb;fill:#000000;fill-opacity:1;fill-rule:nonzero;stroke:none;stroke-width:0.35277778"
       x="57.158028"
       y="222.45956">
      <tspan
         id="tspan1232"
         sodipodi:role="line"
         y="222.45956"
         x="57.158028 59.401695 60.523529"
         style="stroke-width:0.35277778">0.2</tspan>
    </text>
    <path
       inkscape:connector-curvature="0"
       id="path1236"
       style="fill:#000000;fill-opacity:1;fill-rule:nonzero;stroke:#000000;stroke-width:0.28222221;stroke-linecap:butt;stroke-linejoin:round;stroke-miterlimit:10;stroke-dasharray:none;stroke-opacity:1"
       d="m 82.869894,217.31121 v 1.23472" />
    <text
       id="text1240"
       style="font-variant:normal;font-weight:normal;font-size:3.52777767px;font-family:'DejaVu Sans';-inkscape-font-specification:DejaVuSans;writing-mode:lr-tb;fill:#000000;fill-opacity:1;fill-rule:nonzero;stroke:none;stroke-width:0.35277778"
       x="80.064209"
       y="222.45956">
      <tspan
         id="tspan1238"
         sodipodi:role="line"
         y="222.45956"
         x="80.064209 82.307877 83.42971"
         style="stroke-width:0.35277778">0.4</tspan>
    </text>
    <path
       inkscape:connector-curvature="0"
       id="path1242"
       style="fill:#000000;fill-opacity:1;fill-rule:nonzero;stroke:#000000;stroke-width:0.28222221;stroke-linecap:butt;stroke-linejoin:round;stroke-miterlimit:10;stroke-dasharray:none;stroke-opacity:1"
       d="m 105.77608,217.31121 v 1.23472" />
    <text
       id="text1246"
       style="font-variant:normal;font-weight:normal;font-size:3.52777767px;font-family:'DejaVu Sans';-inkscape-font-specification:DejaVuSans;writing-mode:lr-tb;fill:#000000;fill-opacity:1;fill-rule:nonzero;stroke:none;stroke-width:0.35277778"
       x="102.97039"
       y="222.45956">
      <tspan
         id="tspan1244"
         sodipodi:role="line"
         y="222.45956"
         x="102.97039 105.21406 106.33589"
         style="stroke-width:0.35277778">0.6</tspan>
    </text>
    <path
       inkscape:connector-curvature="0"
       id="path1248"
       style="fill:#000000;fill-opacity:1;fill-rule:nonzero;stroke:#000000;stroke-width:0.28222221;stroke-linecap:butt;stroke-linejoin:round;stroke-miterlimit:10;stroke-dasharray:none;stroke-opacity:1"
       d="m 128.68226,217.31121 v 1.23472" />
    <text
       id="text1252"
       style="font-variant:normal;font-weight:normal;font-size:3.52777767px;font-family:'DejaVu Sans';-inkscape-font-specification:DejaVuSans;writing-mode:lr-tb;fill:#000000;fill-opacity:1;fill-rule:nonzero;stroke:none;stroke-width:0.35277778"
       x="125.87657"
       y="222.45956">
      <tspan
         id="tspan1250"
         sodipodi:role="line"
         y="222.45956"
         x="125.87657 128.12024 129.24207"
         style="stroke-width:0.35277778">0.8</tspan>
    </text>
    <path
       inkscape:connector-curvature="0"
       id="path1254"
       style="fill:#000000;fill-opacity:1;fill-rule:nonzero;stroke:#000000;stroke-width:0.28222221;stroke-linecap:butt;stroke-linejoin:round;stroke-miterlimit:10;stroke-dasharray:none;stroke-opacity:1"
       d="m 151.58844,217.31121 v 1.23472" />
    <text
       id="text1258"
       style="font-variant:normal;font-weight:normal;font-size:3.52777767px;font-family:'DejaVu Sans';-inkscape-font-specification:DejaVuSans;writing-mode:lr-tb;fill:#000000;fill-opacity:1;fill-rule:nonzero;stroke:none;stroke-width:0.35277778"
       x="148.78275"
       y="222.45956">
      <tspan
         id="tspan1256"
         sodipodi:role="line"
         y="222.45956"
         x="148.78275 151.02641 152.14825"
         style="stroke-width:0.35277778">1.0</tspan>
    </text>
    <text
       id="text1262"
       style="font-variant:normal;font-weight:normal;font-size:3.52777767px;font-family:'DejaVu Sans';-inkscape-font-specification:DejaVuSans;writing-mode:lr-tb;fill:#000000;fill-opacity:1;fill-rule:nonzero;stroke:none;stroke-width:0.35277778"
       x="89.48056"
       y="227.28268">
      <tspan
         id="tspan1260"
         sodipodi:role="line"
         y="227.28268"
         x="89.48056 90.930481 93.10006 95.040337 97.202866 98.183586"
         style="stroke-width:0.35277778">recall</tspan>
    </text>
    <path
       inkscape:connector-curvature="0"
       id="path1264"
       style="fill:#000000;fill-opacity:1;fill-rule:nonzero;stroke:#000000;stroke-width:0.28222221;stroke-linecap:butt;stroke-linejoin:round;stroke-miterlimit:10;stroke-dasharray:none;stroke-opacity:1"
       d="M 31.330988,213.04401 H 30.096265" />
    <text
       id="text1268"
       style="font-variant:normal;font-weight:normal;font-size:3.52777767px;font-family:'DejaVu Sans';-inkscape-font-specification:DejaVuSans;writing-mode:lr-tb;fill:#000000;fill-opacity:1;fill-rule:nonzero;stroke:none;stroke-width:0.35277778"
       x="23.250172"
       y="214.38345">
      <tspan
         id="tspan1266"
         sodipodi:role="line"
         y="214.38345"
         x="23.250172 25.493839 26.615671"
         style="stroke-width:0.35277778">0.0</tspan>
    </text>
    <path
       inkscape:connector-curvature="0"
       id="path1270"
       style="fill:#000000;fill-opacity:1;fill-rule:nonzero;stroke:#000000;stroke-width:0.28222221;stroke-linecap:butt;stroke-linejoin:round;stroke-miterlimit:10;stroke-dasharray:none;stroke-opacity:1"
       d="M 31.330988,195.97521 H 30.096265" />
    <text
       id="text1274"
       style="font-variant:normal;font-weight:normal;font-size:3.52777767px;font-family:'DejaVu Sans';-inkscape-font-specification:DejaVuSans;writing-mode:lr-tb;fill:#000000;fill-opacity:1;fill-rule:nonzero;stroke:none;stroke-width:0.35277778"
       x="23.250172"
       y="197.31467">
      <tspan
         id="tspan1272"
         sodipodi:role="line"
         y="197.31467"
         x="23.250172 25.493839 26.615671"
         style="stroke-width:0.35277778">0.2</tspan>
    </text>
    <path
       inkscape:connector-curvature="0"
       id="path1276"
       style="fill:#000000;fill-opacity:1;fill-rule:nonzero;stroke:#000000;stroke-width:0.28222221;stroke-linecap:butt;stroke-linejoin:round;stroke-miterlimit:10;stroke-dasharray:none;stroke-opacity:1"
       d="M 31.330988,178.90641 H 30.096265" />
    <text
       id="text1280"
       style="font-variant:normal;font-weight:normal;font-size:3.52777767px;font-family:'DejaVu Sans';-inkscape-font-specification:DejaVuSans;writing-mode:lr-tb;fill:#000000;fill-opacity:1;fill-rule:nonzero;stroke:none;stroke-width:0.35277778"
       x="23.250172"
       y="180.24586">
      <tspan
         id="tspan1278"
         sodipodi:role="line"
         y="180.24586"
         x="23.250172 25.493839 26.615671"
         style="stroke-width:0.35277778">0.4</tspan>
    </text>
    <path
       inkscape:connector-curvature="0"
       id="path1282"
       style="fill:#000000;fill-opacity:1;fill-rule:nonzero;stroke:#000000;stroke-width:0.28222221;stroke-linecap:butt;stroke-linejoin:round;stroke-miterlimit:10;stroke-dasharray:none;stroke-opacity:1"
       d="M 31.330988,161.83761 H 30.096265" />
    <text
       id="text1286"
       style="font-variant:normal;font-weight:normal;font-size:3.52777767px;font-family:'DejaVu Sans';-inkscape-font-specification:DejaVuSans;writing-mode:lr-tb;fill:#000000;fill-opacity:1;fill-rule:nonzero;stroke:none;stroke-width:0.35277778"
       x="23.250172"
       y="163.17706">
      <tspan
         id="tspan1284"
         sodipodi:role="line"
         y="163.17706"
         x="23.250172 25.493839 26.615671"
         style="stroke-width:0.35277778">0.6</tspan>
    </text>
    <path
       inkscape:connector-curvature="0"
       id="path1288"
       style="fill:#000000;fill-opacity:1;fill-rule:nonzero;stroke:#000000;stroke-width:0.28222221;stroke-linecap:butt;stroke-linejoin:round;stroke-miterlimit:10;stroke-dasharray:none;stroke-opacity:1"
       d="M 31.330988,144.76881 H 30.096265" />
    <text
       id="text1292"
       style="font-variant:normal;font-weight:normal;font-size:3.52777767px;font-family:'DejaVu Sans';-inkscape-font-specification:DejaVuSans;writing-mode:lr-tb;fill:#000000;fill-opacity:1;fill-rule:nonzero;stroke:none;stroke-width:0.35277778"
       x="23.250172"
       y="146.10826">
      <tspan
         id="tspan1290"
         sodipodi:role="line"
         y="146.10826"
         x="23.250172 25.493839 26.615671"
         style="stroke-width:0.35277778">0.8</tspan>
    </text>
    <path
       inkscape:connector-curvature="0"
       id="path1294"
       style="fill:#000000;fill-opacity:1;fill-rule:nonzero;stroke:#000000;stroke-width:0.28222221;stroke-linecap:butt;stroke-linejoin:round;stroke-miterlimit:10;stroke-dasharray:none;stroke-opacity:1"
       d="M 31.330988,127.70001 H 30.096265" />
    <text
       id="text1298"
       style="font-variant:normal;font-weight:normal;font-size:3.52777767px;font-family:'DejaVu Sans';-inkscape-font-specification:DejaVuSans;writing-mode:lr-tb;fill:#000000;fill-opacity:1;fill-rule:nonzero;stroke:none;stroke-width:0.35277778"
       x="23.250172"
       y="129.03947">
      <tspan
         id="tspan1296"
         sodipodi:role="line"
         y="129.03947"
         x="23.250172 25.493839 26.615671"
         style="stroke-width:0.35277778">1.0</tspan>
    </text>
    <text
       id="text1302"
       style="font-variant:normal;font-weight:normal;font-size:3.52777767px;font-family:'DejaVu Sans';-inkscape-font-specification:DejaVuSans;writing-mode:lr-tb;fill:#000000;fill-opacity:1;fill-rule:nonzero;stroke:none;stroke-width:0.35277778"
       transform="rotate(-90)"
       x="-178.37289"
       y="21.105944">
      <tspan
         id="tspan1300"
         sodipodi:role="line"
         y="21.105944"
         x="-178.37289 -176.13277 -174.68285 -172.51326 -170.57298 -169.59225 -167.75429 -166.77356 -164.61456"
         style="stroke-width:0.35277778">precision</tspan>
    </text>
    <g
       id="g1304"
       transform="matrix(0.35277777,0,0,-0.35277777,11.010988,230.72241)">
      <g
         id="g1306"
         clip-path="url(#clipPath1310)">
        <path
           d="m 73.832727,292.032 61.744113,-33.6 0.99588,0.46027 0.99587,-2.34187 0.99587,0.46686 1.99175,-1.7326 4.97936,2.18734 0.99588,0.40659 0.99587,-1.99556 4.97936,1.96462 5.97524,2.09292 5.97524,1.85143 2.98761,0.84785 1.99175,-1.39767 6.97111,1.84213 6.97111,1.63414 1.99174,-1.25968 4.97937,1.08232 1.99174,-2.74909 1.99175,0.43826 1.99175,-1.08166 8.96285,1.853 6.97111,1.29435 1.99175,-0.99195 2.98762,0.52874 1.99174,-0.94773 7.96698,1.34009 0.99588,-0.44983 1.99174,-0.28439 4.97937,0.77981 1.99174,-0.85288 5.97524,0.89419 1.99175,-0.81415 4.97936,0.71335 1.99174,-1.82626 0.99588,0.14462 3.98349,-1.45415 4.97936,0.71659 1.99175,-2.59982 1.99174,-1.56658 1.99175,0.30314 1.99175,-1.50401 3.98349,0.60608 1.99174,-0.57528 0.99588,0.14886 4.97936,-1.37479 0.99587,-0.67734 0.99588,-0.25978 0.99587,0.15036 1.99174,-1.30778 0.99588,0.15194 0.99587,-0.6353 0.99587,-1.01635 0.99588,-0.23114 1.99174,-1.208 1.99175,0.31221 0.99587,-0.21703 0.99587,-0.94936 0.99588,-0.5731 0.99587,-0.20285 1.99174,-1.10905 0.99588,-1.58156 0.99587,-2.55881 0.99587,-1.49391 0.99588,-0.15635 0.99587,-0.4786 0.99587,0.17177 2.98762,-0.44824 1.99175,-0.91744 0.99587,-0.75743 0.99587,-3.13526 0.99587,-3.6036 0.99588,-3.14718 0.99587,-1.97572 0.99587,-1.37995 0.99588,-1.86913 0.99587,-0.30943 1.99174,-5.4414 0.99588,0.20518 1.99174,-1.9001 0.99587,-0.69617 0.99588,-0.91119 0.99587,-0.0151 0.99587,-1.10086 0.99588,-1.29937 0.99587,-0.42667 1.99175,-1.25033 1.99174,-5.70755 0.99587,-0.54237 1.99175,-9.07968 1.99174,-2.47425 0.99588,-4.19922 0.99587,-5.49827 1.99175,-9.06393 0.99587,-2.55915 0.99587,-4.68869 0.99587,-5.26975 0.99588,-2.3572 1.99174,-5.8441 0.99588,-1.99135 1.99174,-4.96079 0.99588,-1.08641 0.99587,-2.27006 0.99587,-3.24115 0.99587,-1.89291 0.99588,-1.19331 0.99587,-2.19989 0.99587,-3.84669 0.99588,-2.39663 0.99587,-7.43736 0.99587,-6.40687 0.99587,-0.13331 0.99588,-0.71274 0.99587,-2.02922 0.99587,-4.51231 0.99587,-3.52944 0.99588,-3.02906 0.99587,-2.330253 0.99587,-0.544427 1.99175,-3.575583 0.99587,-2.413399 0.99587,-5.130119 0.99588,-3.355134 0.99587,-0.466994 0.99587,-3.26306 2.98762,-16.259669 0.99587,-2.538735 1.99175,-3.927995 0.99587,-1.407352 0.99588,-0.713347 0.99587,-0.565755 0.99587,-0.357582 0.99587,-0.0081 0.99588,-0.119343 4.97936,-1.299538 0.99587,-0.278196 0.99588,-0.08659 1.99174,-0.575339 v 0"
           style="fill:none;stroke:#1f77b4;stroke-width:1.5;stroke-linecap:square;stroke-linejoin:round;stroke-miterlimit:10;stroke-dasharray:none;stroke-opacity:1"
           id="path1312"
           inkscape:connector-curvature="0" />
      </g>
    </g>
    <g
       id="g1314"
       transform="matrix(0.35277777,0,0,-0.35277777,11.010988,230.72241)">
      <g
         id="g1316"
         clip-path="url(#clipPath1320)">
        <path
           d="M 73.832727,292.032 H 228.19302 l 0.99587,-16.93973 0.99587,-22.97736 0.99588,-15.38752 0.99587,-12.99935 0.99587,-11.30196 0.99587,-16.62056 1.99175,-13.58943 0.99587,0.14551 1.99175,-13.29245 0.99587,-0.65341 0.99587,-1.12813 0.99588,-8.22128 0.99587,-5.02106 0.99587,-0.64142 0.99588,0.0878 0.99587,-2.38266 0.99587,-4.10503 1.99175,-3.17724 1.99174,-4.70397 0.99587,-6.87182 3.9835,-5.99384 0.99587,-0.95212 0.99587,-1.31169 0.99587,-1.82782 0.99588,-0.44721 5.97523,-6.75824 8.96286,-6.46348 2.98762,-5.45645 8.96285,-2.56729 1.99175,-2.683116 2.98762,-2.626235 4.97936,-1.906461 2.98762,-1.447291 1.99175,-2.581271 2.98762,-2.336956 0.99587,-0.945146 0.99587,-0.782118 1.99175,-0.429312 0.99587,-1.423661 2.98762,-0.05949 1.99174,-0.669044 0.99588,-0.556154 4.97936,-1.628733 0.99587,-0.464963 2.98762,-0.223659 0.99587,-0.880133 0.99588,-0.568767 2.98762,-0.292789 1.99174,-0.41491 0.99588,-0.74714 1.99174,-1.275955 1.99175,-0.951622 0.99587,-0.673429 2.98762,-0.719631 2.98762,-0.221518 1.99174,-0.489327 0.99587,-0.571656 0.99588,-0.08457 0.99587,-0.325978 0.99587,-0.509304 1.99175,-0.533057 5.97524,-0.06005 0.99587,-0.255117 1.99175,-1.693404 0.99587,-0.618834 2.98762,-0.798173 0.99587,-0.717487 1.99174,-0.686633 1.99175,-0.554468 1.99175,-0.431224 6.97111,-0.8132 1.99174,-1.151598 2.98762,-0.38437 0.99587,-0.316244 1.99175,-0.810655 2.98762,-0.791684 0.99587,-1.409831 0.99587,-0.819184 0.99588,-0.121773 0.99587,-0.394032 0.99587,-0.927258 1.99175,-0.654941 0.99587,-1.197199 0.99587,-0.565824 v 0"
           style="fill:none;stroke:#ff7f0e;stroke-width:1.5;stroke-linecap:square;stroke-linejoin:round;stroke-miterlimit:10;stroke-dasharray:none;stroke-opacity:1"
           id="path1322"
           inkscape:connector-curvature="0" />
      </g>
    </g>
    <g
       id="g1324"
       transform="matrix(0.35277777,0,0,-0.35277777,11.010988,230.72241)">
      <g
         id="g1326"
         clip-path="url(#clipPath1330)">
        <path
           d="m 73.832727,292.032 75.823923,-136.5438 1.06794,-4.69273 1.06795,-2.57147 4.27177,3.12626 2.13588,-3.47967 2.13589,0.22146 1.06794,-0.0168 1.06794,-1.06792 2.13589,-4.47102 1.06794,-3.14575 1.06794,-2.12689 1.06794,0.45721 1.06795,-0.60798 1.06794,-1.11048 1.06794,-0.22918 2.13589,-3.24821 1.06794,0.27961 3.20383,-0.49622 1.06794,-1.27492 1.06794,-0.68651 2.13589,0.80642 1.06794,0.26305 1.06794,-0.13741 1.06795,-1.03527 1.06794,-0.87466 2.13588,0.26897 2.13589,0.0604 1.06794,-0.50213 1.06794,-0.79271 1.06795,-0.65415 1.06794,-2.90727 1.06794,-2.53387 1.06794,-0.0277 1.06795,-1.60713 1.06794,-2.18888 1.06794,-1.20059 2.13589,-5.53532 1.06794,-0.9938 3.20383,-1.06381 1.06794,0.30202 1.06794,-0.11119 1.06795,-2.26964 2.13588,-6.06969 1.06794,-1.47065 1.06795,-0.516383 1.06794,-1.414466 1.06794,-1.16045 1.06794,0.249419 1.06795,-2.101964 1.06794,-3.319019 1.06794,-1.834608 2.13589,-1.747316 2.13588,-2.123436 1.06794,-0.207642 1.06795,-0.520806 2.13588,-1.432136 1.06794,-0.447168 1.06795,0.0081 1.06794,-0.330724 2.13588,-0.412423 1.06795,-0.392363 1.06794,-0.569733 1.06794,-0.345911 1.06794,-0.163407 4.27178,-1.338756 3.20382,-0.242263 1.06795,-0.292712 1.06794,-1.210473 1.06794,-0.918379 1.06794,-0.395162 1.06795,-1.090715 1.06794,-0.781073 2.13588,-0.256611 2.13589,-1.90914 1.06794,0.0252 1.06794,-0.210939 2.13589,-0.695617 4.27177,-0.680305 1.06794,-0.54699 1.06794,-1.075666 1.06795,-0.501689 3.20382,-0.347394 1.06795,-0.515146 1.06794,-1.019026 1.06794,-0.804891 1.06795,-0.285644 1.06794,-0.481152 1.06794,-0.312966 1.06794,-0.182217 2.13589,-0.701982 3.20383,-1.063638 1.06794,-0.14937 1.06794,0.01298 1.06794,-0.124909 3.20383,-1.267836 1.06794,-0.105952 1.06795,0.02766 3.20382,-0.679843 1.06795,-0.630068 1.06794,-0.304465 2.13588,-1.211099 1.06795,-0.08143 1.06794,-0.406423 1.06794,-1.198093 3.20383,-0.828046 4.27177,-1.558583 4.27177,-0.946835 3.20383,-0.05169 1.06794,-0.138772 2.13589,-0.871543 10.67942,-0.501143 16.01914,-1.125258 50.1933,-0.660618 v 0"
           style="fill:none;stroke:#2ca02c;stroke-width:1.5;stroke-linecap:square;stroke-linejoin:round;stroke-miterlimit:10;stroke-dasharray:none;stroke-opacity:1"
           id="path1332"
           inkscape:connector-curvature="0" />
      </g>
    </g>
    <g
       id="g1334"
       transform="matrix(0.35277777,0,0,-0.35277777,11.010988,230.72241)">
      <g
         id="g1336"
         clip-path="url(#clipPath1340)">
        <path
           d="m 73.832727,130.752 h 1.067943 l 1.067942,-4.90971 1.067943,-38.468223 1.067943,-15.980826 1.067942,-4.467558 1.067943,-11.781257 1.067942,-2.957814 1.067943,-0.06376 2.135885,0.371574 6.407656,0.432994 1.067942,-0.176783 1.067943,-0.539467 1.067942,-0.345724 1.067943,-0.152821 2.135885,-0.481523 3.203826,-0.236554 2.13589,-0.09492 2.13588,-0.08854 29.90239,-0.03002 23.49474,-0.115128 40.58182,-0.04184 199.70526,0.02887 v 0"
           style="fill:none;stroke:#d62728;stroke-width:1.5;stroke-linecap:square;stroke-linejoin:round;stroke-miterlimit:10;stroke-dasharray:none;stroke-opacity:1"
           id="path1342"
           inkscape:connector-curvature="0" />
      </g>
    </g>
    <g
       id="g1344"
       transform="matrix(0.35277777,0,0,-0.35277777,11.010988,230.72241)">
      <path
         d="M 57.6,38.016 V 304.128"
         style="fill:none;stroke:#000000;stroke-width:0.80000001;stroke-linecap:square;stroke-linejoin:miter;stroke-miterlimit:10;stroke-dasharray:none;stroke-opacity:1"
         id="path1346"
         inkscape:connector-curvature="0" />
      <path
         d="M 414.72,38.016 V 304.128"
         style="fill:none;stroke:#000000;stroke-width:0.80000001;stroke-linecap:square;stroke-linejoin:miter;stroke-miterlimit:10;stroke-dasharray:none;stroke-opacity:1"
         id="path1348"
         inkscape:connector-curvature="0" />
      <path
         d="M 57.6,38.016 H 414.72"
         style="fill:none;stroke:#000000;stroke-width:0.80000001;stroke-linecap:square;stroke-linejoin:miter;stroke-miterlimit:10;stroke-dasharray:none;stroke-opacity:1"
         id="path1350"
         inkscape:connector-curvature="0" />
      <path
         d="M 57.6,304.128 H 414.72"
         style="fill:none;stroke:#000000;stroke-width:0.80000001;stroke-linecap:square;stroke-linejoin:miter;stroke-miterlimit:10;stroke-dasharray:none;stroke-opacity:1"
         id="path1352"
         inkscape:connector-curvature="0" />
      <text
         transform="matrix(1,0,0,-1,182.12875,310.128)"
         style="font-style:italic;font-variant:normal;font-size:12px;font-family:'Liberation Sans';-inkscape-font-specification:LiberationSans-Italic;writing-mode:lr-tb;fill:#000000;fill-opacity:1;fill-rule:nonzero;stroke:none"
         id="text1356">
        <tspan
           x="0 8.0039997 12 18.672001 25.344 28.007999 34.68 41.352001 48.023998 54.023998 56.688 62.688 66.024002 69.360001 76.031998 82.704002 85.367996 88.031998 94.704002 101.376"
           y="0"
           sodipodi:role="line"
           id="tspan1354">Arabidopsis thaliana</tspan>
      </text>
      <path
         d="M 330.04812,222.76862 H 407.72 c 1.33333,0 2,0.66667 2,2 V 297.128 c 0,1.33333 -0.66667,2 -2,2 h -77.67188 c -1.33333,0 -2,-0.66667 -2,-2 v -72.35938 c 0,-1.33333 0.66667,-2 2,-2 z"
         style="fill:#ffffff;fill-opacity:0.8;fill-rule:nonzero;stroke:#cccccc;stroke-width:1;stroke-linecap:butt;stroke-linejoin:miter;stroke-miterlimit:10;stroke-dasharray:none;stroke-opacity:0.8"
         id="path1358"
         inkscape:connector-curvature="0" />
      <text
         transform="matrix(1,0,0,-1,360.04812,287.53425)"
         style="font-variant:normal;font-weight:normal;font-size:10px;font-family:'DejaVu Sans';-inkscape-font-specification:DejaVuSans;writing-mode:lr-tb;fill:#000000;fill-opacity:1;fill-rule:nonzero;stroke:none"
         id="text1362">
        <tspan
           x="0 6.98 9.7600002 15.89 21.1 26.309999 29.09 32.610001 35.389999 41.540001"
           y="0"
           sodipodi:role="line"
           id="tspan1360">Classifier</tspan>
      </text>
      <path
         d="m 332.04812,276.36237 h 20"
         style="fill:none;stroke:#1f77b4;stroke-width:1.5;stroke-linecap:square;stroke-linejoin:round;stroke-miterlimit:10;stroke-dasharray:none;stroke-opacity:1"
         id="path1364"
         inkscape:connector-curvature="0" />
      <text
         transform="matrix(1,0,0,-1,360.04812,272.86237)"
         style="font-variant:normal;font-weight:normal;font-size:10px;font-family:'DejaVu Sans';-inkscape-font-specification:DejaVuSans;writing-mode:lr-tb;fill:#000000;fill-opacity:1;fill-rule:nonzero;stroke:none"
         id="text1368">
        <tspan
           x="0 9.7399998 12.52 16.629999 24.33 31.809999"
           y="0"
           sodipodi:role="line"
           id="tspan1366">mirDNN</tspan>
      </text>
      <path
         d="m 332.04812,261.6905 h 20"
         style="fill:none;stroke:#ff7f0e;stroke-width:1.5;stroke-linecap:square;stroke-linejoin:round;stroke-miterlimit:10;stroke-dasharray:none;stroke-opacity:1"
         id="path1370"
         inkscape:connector-curvature="0" />
      <text
         transform="matrix(1,0,0,-1,360.04812,258.1905)"
         style="font-variant:normal;font-weight:normal;font-size:10px;font-family:'DejaVu Sans';-inkscape-font-specification:DejaVuSans;writing-mode:lr-tb;fill:#000000;fill-opacity:1;fill-rule:nonzero;stroke:none"
         id="text1374">
        <tspan
           x="0 6.8600001 12.43 19.27 25.620001"
           y="0"
           sodipodi:role="line"
           id="tspan1372">BLAST</tspan>
      </text>
      <path
         d="m 332.04812,247.01862 h 20"
         style="fill:none;stroke:#2ca02c;stroke-width:1.5;stroke-linecap:square;stroke-linejoin:round;stroke-miterlimit:10;stroke-dasharray:none;stroke-opacity:1"
         id="path1376"
         inkscape:connector-curvature="0" />
      <text
         transform="matrix(1,0,0,-1,360.04812,243.51862)"
         style="font-variant:normal;font-weight:normal;font-size:10px;font-family:'DejaVu Sans';-inkscape-font-specification:DejaVuSans;writing-mode:lr-tb;fill:#000000;fill-opacity:1;fill-rule:nonzero;stroke:none"
         id="text1380">
        <tspan
           x="0 6.9499998"
           y="0"
           sodipodi:role="line"
           id="tspan1378">RF</tspan>
      </text>
      <path
         d="m 332.04812,232.34675 h 20"
         style="fill:none;stroke:#d62728;stroke-width:1.5;stroke-linecap:square;stroke-linejoin:round;stroke-miterlimit:10;stroke-dasharray:none;stroke-opacity:1"
         id="path1382"
         inkscape:connector-curvature="0" />
      <text
         transform="matrix(1,0,0,-1,360.04812,228.84675)"
         style="font-variant:normal;font-weight:normal;font-size:10px;font-family:'DejaVu Sans';-inkscape-font-specification:DejaVuSans;writing-mode:lr-tb;fill:#000000;fill-opacity:1;fill-rule:nonzero;stroke:none"
         id="text1386">
        <tspan
           x="0 9.7399998 12.52 19.469999 26.950001 33.790001 39"
           y="0"
           sodipodi:role="line"
           id="tspan1384">miRNAss</tspan>
      </text>
    </g>
  </g>
  <g
     inkscape:groupmode="layer"
     id="layer2"
     inkscape:label="Capa 2"
     style="display:inline">
    <path
       transform="translate(-11.010988,-108.80241)"
       style="display:inline;fill:none;fill-rule:evenodd;stroke:#000000;stroke-width:0.5;stroke-linecap:butt;stroke-linejoin:miter;stroke-miterlimit:4;stroke-dasharray:none;stroke-opacity:1"
       d="m 128.68226,217.31121 0.0703,-60.23064"
       id="path1790"
       inkscape:connector-curvature="0" />
    <circle
       transform="translate(-11.010988,-108.80241)"
       style="color:#000000;display:inline;overflow:visible;visibility:visible;opacity:1;fill:#90b4b8;fill-opacity:1;fill-rule:evenodd;stroke:#000000;stroke-width:0.5;stroke-linecap:round;stroke-linejoin:bevel;stroke-miterlimit:4;stroke-dasharray:none;stroke-dashoffset:0;stroke-opacity:1;marker:none;enable-background:accumulate"
       id="path1553"
       cx="128.68227"
       cy="204.08041"
       r="1.5053002" />
    <circle
       transform="translate(-11.010988,-108.80241)"
       style="color:#000000;display:inline;overflow:visible;visibility:visible;opacity:1;fill:#90b4b8;fill-opacity:1;fill-rule:evenodd;stroke:#000000;stroke-width:0.5;stroke-linecap:round;stroke-linejoin:bevel;stroke-miterlimit:4;stroke-dasharray:none;stroke-dashoffset:0;stroke-opacity:1;marker:none;enable-background:accumulate"
       id="path1553-3"
       cx="128.68227"
       cy="156.90642"
       r="1.5053002" />
    <g
       style="display:inline"
       id="g1874"
       transform="translate(-61.6887,-86.900269)">
      <rect
         y="165.21904"
         x="180.91228"
         height="15.234365"
         width="27.712044"
         id="rect1802"
         style="color:#000000;display:inline;overflow:visible;visibility:visible;opacity:1;fill:#90b4b8;fill-opacity:1;fill-rule:evenodd;stroke:#000000;stroke-width:0.2;stroke-linecap:round;stroke-linejoin:bevel;stroke-miterlimit:4;stroke-dasharray:none;stroke-dashoffset:0;stroke-opacity:1;marker:none;filter:url(#filter1844);enable-background:accumulate" />
      <text
         id="text1760-6"
         y="171.25148"
         x="194.79311"
         style="font-style:normal;font-weight:normal;font-size:5.64444447px;line-height:125%;font-family:Sans;letter-spacing:0px;word-spacing:0px;fill:#000000;fill-opacity:1;stroke:none;stroke-width:0.26458332px;stroke-linecap:butt;stroke-linejoin:miter;stroke-opacity:1"
         xml:space="preserve"><tspan
           style="text-align:center;text-anchor:middle;stroke-width:0.26458332px"
           y="171.25148"
           x="194.79311"
           id="tspan1758-7"
           sodipodi:role="line">Pr: 10%</tspan><tspan
           id="tspan1764-5"
           style="text-align:center;text-anchor:middle;stroke-width:0.26458332px"
           y="178.30704"
           x="194.79311"
           sodipodi:role="line">~2600 FP</tspan><tspan
           id="tspan1762-3"
           style="text-align:center;text-anchor:middle;stroke-width:0.26458332px"
           y="185.36259"
           x="194.79311"
           sodipodi:role="line" /></text>
    </g>
    <g
       style="display:inline"
       id="g1881"
       transform="translate(-68.578561,-88.346706)">
      <rect
         y="137.21243"
         x="187.80214"
         height="15.234365"
         width="27.712044"
         id="rect1802-2"
         style="color:#000000;display:inline;overflow:visible;visibility:visible;opacity:1;fill:#90b4b8;fill-opacity:1;fill-rule:evenodd;stroke:#000000;stroke-width:0.2;stroke-linecap:round;stroke-linejoin:bevel;stroke-miterlimit:4;stroke-dasharray:none;stroke-dashoffset:0;stroke-opacity:1;marker:none;filter:url(#filter1844-5);enable-background:accumulate" />
      <text
         id="text1760"
         y="143.23247"
         x="201.52586"
         style="font-style:normal;font-weight:normal;font-size:5.64444447px;line-height:125%;font-family:Sans;letter-spacing:0px;word-spacing:0px;fill:#000000;fill-opacity:1;stroke:none;stroke-width:0.26458332px;stroke-linecap:butt;stroke-linejoin:miter;stroke-opacity:1"
         xml:space="preserve"><tspan
           style="text-align:center;text-anchor:middle;stroke-width:0.26458332px"
           y="143.23247"
           x="201.52586"
           id="tspan1758"
           sodipodi:role="line">Pr: 75%</tspan><tspan
           id="tspan1764"
           style="text-align:center;text-anchor:middle;stroke-width:0.26458332px"
           y="150.28802"
           x="201.52586"
           sodipodi:role="line">~86 FP</tspan><tspan
           id="tspan1762"
           style="text-align:center;text-anchor:middle;stroke-width:0.26458332px"
           y="157.34358"
           x="201.52586"
           sodipodi:role="line" /></text>
    </g>
    <g
       style="display:inline"
       id="g1927"
       transform="translate(-66.307838,-173.59876)">
      <rect
         y="240.16565"
         x="150.55219"
         height="8.5353584"
         width="33.149509"
         id="rect1802-7"
         style="color:#000000;display:inline;overflow:visible;visibility:visible;opacity:1;fill:#90b4b8;fill-opacity:1;fill-rule:evenodd;stroke:#000000;stroke-width:0.2;stroke-linecap:round;stroke-linejoin:bevel;stroke-miterlimit:4;stroke-dasharray:none;stroke-dashoffset:0;stroke-opacity:1;marker:none;filter:url(#filter1844-9);enable-background:accumulate" />
      <text
         id="text1794"
         y="246.45078"
         x="152.5845"
         style="font-style:normal;font-weight:normal;font-size:5.64444447px;line-height:125%;font-family:Sans;letter-spacing:0px;word-spacing:0px;fill:#000000;fill-opacity:1;stroke:none;stroke-width:0.26458332px;stroke-linecap:butt;stroke-linejoin:miter;stroke-opacity:1"
         xml:space="preserve"><tspan
           id="tspan1796"
           style="stroke-width:0.26458332px"
           y="246.45078"
           x="152.5845"
           sodipodi:role="line">260/326 TP</tspan></text>
    </g>
  </g>
</svg>
